 <svg id="flavor" data-name="flavor" xmlns="http://www.w3.org/2000/svg" viewBox="0 0 406.49 477.22"><defs/><path class="cls-1" d="M35.15 455.78h5.41v31.51h-4.34l-16.89-22v22H14v-31.51h4.29l16.89 21.94zM51 486.26a9.5 9.5 0 0 1-3.91-4 12.54 12.54 0 0 1-1.39-6 12.38 12.38 0 0 1 1.39-6 9.57 9.57 0 0 1 3.91-4 13.2 13.2 0 0 1 11.75 0 9.52 9.52 0 0 1 3.89 4 12.6 12.6 0 0 1 1.36 6 12.77 12.77 0 0 1-1.36 6 9.45 9.45 0 0 1-3.89 4 13.2 13.2 0 0 1-11.75 0zm10-4.74A10.39 10.39 0 0 0 61 471a4.91 4.91 0 0 0-4.11-1.81 5 5 0 0 0-4.2 1.81 10.33 10.33 0 0 0 0 10.52 5 5 0 0 0 4.11 1.79 5 5 0 0 0 4.13-1.79zM109.24 487.29l-3.17-7.38H90.74l-3.17 7.38h-5.81L96 455.78h4.69L115 487.29zm-16.62-11.85h11.53L98.38 462zM132.21 469.54l-3.26.32c-3.69.39-5.54 2.26-5.54 5.63v11.8h-5.59v-21.86h5.32v3.85q1.69-3.93 7-4.29l1.7-.14zM150.18 483.31l-.27 4.16c-.89.08-1.71.13-2.46.13q-4.6 0-6.79-2.12t-2.19-6.33v-9.52h-4.2v-4.2h4.2v-6.52h5.59v6.52h5.76v4.2h-5.76v9.43q0 4.38 4.06 4.38a16.51 16.51 0 0 0 2.06-.13zM153.13 455.29h6.16v5.5h-6.16zm.31 32v-21.86H159v21.86zM171.9 465.43h14.43v21.86h-5.58v-17.66h-8.85v17.66h-5.59v-17.66h-4.2v-4.2h4.2c0-3.15.83-5.53 2.5-7.12s4.19-2.47 7.56-2.62l1.92-.09.27 4.16-2.1.09a5.13 5.13 0 0 0-3.54 1.23 4.65 4.65 0 0 0-1 3.28zm8.53-10.19h6.26v5.59h-6.26zM196.14 486.26a9.38 9.38 0 0 1-3.86-3.93 13.65 13.65 0 0 1 .06-12 9.85 9.85 0 0 1 4-4 12.15 12.15 0 0 1 6-1.43 14.33 14.33 0 0 1 4.54.73 9.73 9.73 0 0 1 3.55 2l-1.61 3.94a10.5 10.5 0 0 0-2.93-1.7 8.55 8.55 0 0 0-3.06-.58 5.71 5.71 0 0 0-4.51 1.81 7.58 7.58 0 0 0-1.61 5.2 7.51 7.51 0 0 0 1.61 5.16 5.71 5.71 0 0 0 4.51 1.81 8.55 8.55 0 0 0 3.06-.58 10.46 10.46 0 0 0 2.93-1.69l1.61 3.88a10 10 0 0 1-3.67 2 14.72 14.72 0 0 1-4.64.73 12.25 12.25 0 0 1-5.98-1.35zM213.64 455.29h6.16v5.5h-6.16zm.31 32v-21.86h5.59v21.86zM241.52 467.13c1.49 1.49 2.24 3.79 2.24 6.88v13.28h-5.32v-3.36a5.78 5.78 0 0 1-2.39 2.73 7.15 7.15 0 0 1-3.78 1 8.75 8.75 0 0 1-4-.89 7 7 0 0 1-2.81-2.46 6.15 6.15 0 0 1-1-3.48 5.51 5.51 0 0 1 1.23-3.8 7.35 7.35 0 0 1 4-2 36.16 36.16 0 0 1 7.64-.63h1.12v-1a4.46 4.46 0 0 0-1-3.21 4.33 4.33 0 0 0-3.2-1 11.82 11.82 0 0 0-3.64.61 18.4 18.4 0 0 0-3.73 1.67l-1.57-3.84a17.09 17.09 0 0 1 4.43-1.92 17.4 17.4 0 0 1 4.92-.76q4.62-.05 6.86 2.18zm-4.49 15a5.38 5.38 0 0 0 1.41-3.86v-.94h-.81a30.54 30.54 0 0 0-4.64.27 4.45 4.45 0 0 0-2.37.94 2.37 2.37 0 0 0-.72 1.83 3.07 3.07 0 0 0 1 2.35 3.51 3.51 0 0 0 2.5.91 4.77 4.77 0 0 0 3.6-1.51zM249.43 487.29v-31.51H255v31.51zM273.39 487.29v-31.51H294v4.6h-15V469h14.08v4.61h-14.02v13.72zM298.19 487.29v-31.51h5.58v31.51zM325.76 467.13c1.49 1.49 2.24 3.79 2.24 6.88v13.28h-5.32v-3.36a5.83 5.83 0 0 1-2.39 2.73 7.15 7.15 0 0 1-3.78 1 8.72 8.72 0 0 1-4-.89 7 7 0 0 1-2.81-2.46 6.15 6.15 0 0 1-1-3.48 5.51 5.51 0 0 1 1.23-3.8 7.35 7.35 0 0 1 4-2 36.16 36.16 0 0 1 7.64-.63h1.12v-1a4.46 4.46 0 0 0-1-3.21 4.33 4.33 0 0 0-3.2-1 11.82 11.82 0 0 0-3.64.61 18.4 18.4 0 0 0-3.73 1.67l-1.57-3.84a17.09 17.09 0 0 1 4.43-1.92 17.33 17.33 0 0 1 4.91-.76q4.63-.05 6.87 2.18zm-4.49 15a5.38 5.38 0 0 0 1.41-3.86v-.94h-.81a30.54 30.54 0 0 0-4.64.27 4.45 4.45 0 0 0-2.37.94 2.37 2.37 0 0 0-.72 1.83 3.07 3.07 0 0 0 1 2.35 3.51 3.51 0 0 0 2.5.91 4.77 4.77 0 0 0 3.63-1.51zM349 465.48h5.5l-9.57 21.81h-4.87l-9.47-21.81h5.9l6.16 15.42zM360.91 486.26a9.56 9.56 0 0 1-3.91-4 12.54 12.54 0 0 1-1.39-6 12.38 12.38 0 0 1 1.39-6 9.63 9.63 0 0 1 3.91-4 13.2 13.2 0 0 1 11.75 0 9.46 9.46 0 0 1 3.89 4 12.6 12.6 0 0 1 1.36 6 12.77 12.77 0 0 1-1.36 6 9.4 9.4 0 0 1-3.89 4 13.2 13.2 0 0 1-11.75 0zm10-4.74a10.39 10.39 0 0 0 0-10.52 4.94 4.94 0 0 0-4.11-1.81 5 5 0 0 0-4.14 1.81 8.19 8.19 0 0 0-1.45 5.25 8.32 8.32 0 0 0 1.43 5.27 5 5 0 0 0 4.11 1.79 5 5 0 0 0 4.15-1.79zM396.91 469.54l-3.27.32c-3.69.39-5.54 2.26-5.54 5.63v11.8h-5.58v-21.86h5.31v3.85q1.71-3.93 7-4.29l1.7-.14zM402.11 486.93a12 12 0 0 1-4.13-2.06l1.56-3.88a13.27 13.27 0 0 0 8 2.54 5.68 5.68 0 0 0 2.93-.62 2 2 0 0 0 1-1.79 1.82 1.82 0 0 0-.7-1.52 7.13 7.13 0 0 0-2.48-1l-3.57-.81a8.72 8.72 0 0 1-4.52-2.19 5.41 5.41 0 0 1-1.47-3.93 5.81 5.81 0 0 1 1.14-3.55 7.32 7.32 0 0 1 3.17-2.39 12.12 12.12 0 0 1 4.72-.85 14.44 14.44 0 0 1 4.49.71 12.64 12.64 0 0 1 3.82 2l-1.57 3.8a11.51 11.51 0 0 0-6.79-2.46 5.28 5.28 0 0 0-2.86.67 2.15 2.15 0 0 0-1 1.88 1.91 1.91 0 0 0 .65 1.48 4.71 4.71 0 0 0 2.08.89l3.71.85a9.45 9.45 0 0 1 4.78 2.26 5.5 5.5 0 0 1 1.52 4 5.66 5.66 0 0 1-2.46 4.83 11.12 11.12 0 0 1-6.66 1.78 18.85 18.85 0 0 1-5.36-.64z" transform="translate(-10.08 -10.42)"/><path class="cls-2" d="M212.31 10.42C100.62 10.42 10.08 101 10.08 212.66S100.62 414.9 212.31 414.9s202.24-90.55 202.24-202.24S324 10.42 212.31 10.42zm-180 202.24a180 180 0 0 1 300.5-133.74L211.64 200.09l-33.29-28.41a86.62 86.62 0 0 0 5-8.93 3.1 3.1 0 0 0-.79-3.71l-17.49-14.93a3.1 3.1 0 0 0-4.38.35l-3.08 3.59a2.71 2.71 0 0 1-3.83.31l-53.58-45.72a13.52 13.52 0 1 0-17.53 20.56l53.58 45.72a2.72 2.72 0 0 1 .31 3.84l-3.08 3.59a3.12 3.12 0 0 0 .35 4.39l17.49 14.93a3.13 3.13 0 0 0 3.8.19 86.56 86.56 0 0 0 8-6.36L195 216.71 78.57 333.16a179.4 179.4 0 0 1-46.28-120.5zm196.3 5.2L302.53 281l20.94 25.19-4.7 5.51L290.6 295l-75.05-64zm-18.73-16l-13.05 13L165 187.78a85.74 85.74 0 0 0 11.94-14zm2.45 190.81a179.33 179.33 0 0 1-116.11-42.43l117.54-117.55L289 296.93l.09.07 30.18 17.91.1-.12c-1.71 4.5-3.88 10.66-3.88 13 0 3.85 2.64 7 5.91 7s5.9-3.12 5.9-7c0-3-3.55-12.26-5.15-16.26l4.57-5.36-22.36-26.9-.07-.09-73.95-63.1L349.89 96.57a180 180 0 0 1-137.58 296.11z" transform="translate(-10.08 -10.42)"/><path class="cls-2" d="M318.44 309.66l3-3.52-7.94-9.55a79.89 79.89 0 0 0-29.38-22.12l-5.21-2.28a7.51 7.51 0 0 0-9.32 2.78l21.92 18.71z" transform="translate(-10.08 -10.42)"/></svg>