<svg xmlns="http://www.w3.org/2000/svg" viewBox="0 0 200 200"><defs><style>.cls-1{fill:#fff}</style></defs><g id="Layer_1" data-name="Layer 1"><path class="cls-1" d="M101 1a100 100 0 1 0 100 100A100 100 0 0 0 101 1zm60 125a34 34 0 0 1-35 35H76a34 34 0 0 1-34-35V76a34 34 0 0 1 34-34h50a34 34 0 0 1 35 34z" transform="translate(-1 -1)"/><path class="cls-1" d="M127 53H76a23 23 0 0 0-23 23v51a23 23 0 0 0 23 23h51a23 23 0 0 0 23-23V76a23 23 0 0 0-23-23zm-26 79a31 31 0 1 1 31-30 31 31 0 0 1-31 30zm32-55a7 7 0 1 1 7-7 7 7 0 0 1-7 7z" transform="translate(-1 -1)"/><path class="cls-1" d="M101 82a20 20 0 1 0 20 20 20 20 0 0 0-20-20z" transform="translate(-1 -1)"/></g></svg>