    <svg id="preservatives" xmlns="http://www.w3.org/2000/svg" viewBox="0 0 404.53 477.29"><defs/><path class="cls-1" d="M63.23 455.78h5.41v31.51H64.3l-16.89-22v22H42v-31.51h4.29l16.9 21.94zM79 486.26a9.56 9.56 0 0 1-3.91-4 12.54 12.54 0 0 1-1.39-6 12.38 12.38 0 0 1 1.39-6 9.57 9.57 0 0 1 3.91-4 13.11 13.11 0 0 1 11.75 0 9.4 9.4 0 0 1 3.89 4 12.6 12.6 0 0 1 1.37 6 12.77 12.77 0 0 1-1.37 6 9.4 9.4 0 0 1-3.89 4 13.2 13.2 0 0 1-11.75 0zm10-4.74A10.39 10.39 0 0 0 89 471a4.94 4.94 0 0 0-4.11-1.81 5 5 0 0 0-4.12 1.81 8.19 8.19 0 0 0-1.45 5.25 8.32 8.32 0 0 0 1.43 5.27 5 5 0 0 0 4.11 1.79 5 5 0 0 0 4.14-1.79zM113.24 455.78H127q5.05 0 7.87 2.52a10.36 10.36 0 0 1 0 14.19Q132.06 475 127 475h-8v12.25h-5.77zm13.05 14.84q6 0 6-5.19a4.87 4.87 0 0 0-1.48-3.91 6.68 6.68 0 0 0-4.47-1.27H119v10.37zM156.2 469.54l-3.27.32q-5.53.57-5.54 5.63v11.8h-5.59v-21.86h5.32v3.84q1.69-3.93 7-4.29l1.7-.13zM177.65 477.36h-14.88a6.82 6.82 0 0 0 1.83 4.52 6.27 6.27 0 0 0 4.47 1.47 10.51 10.51 0 0 0 6.61-2.32l1.61 3.84a11.41 11.41 0 0 1-3.82 2 14.57 14.57 0 0 1-4.62.76q-5.37 0-8.47-3a11 11 0 0 1-3.11-8.31 12.8 12.8 0 0 1 1.34-5.94 9.74 9.74 0 0 1 3.78-4 10.71 10.71 0 0 1 5.52-1.43 9.11 9.11 0 0 1 7.09 2.85c1.74 1.94 2.61 4.6 2.61 8zm-13.21-7.1a6.87 6.87 0 0 0-1.67 4.11h10.1a6.36 6.36 0 0 0-1.34-4.13 4.43 4.43 0 0 0-3.49-1.41 4.72 4.72 0 0 0-3.6 1.43zM184.91 486.93a12 12 0 0 1-4.13-2.06l1.56-3.89a13.21 13.21 0 0 0 8 2.55 5.68 5.68 0 0 0 2.93-.62 2 2 0 0 0 1-1.79 1.79 1.79 0 0 0-.7-1.52 6.94 6.94 0 0 0-2.48-1l-3.57-.81a8.87 8.87 0 0 1-4.52-2.19 5.41 5.41 0 0 1-1.47-3.93 5.84 5.84 0 0 1 1.14-3.56 7.48 7.48 0 0 1 3.17-2.39 12.31 12.31 0 0 1 4.72-.85 14.17 14.17 0 0 1 4.49.72 12.64 12.64 0 0 1 3.82 2l-1.56 3.8a11.56 11.56 0 0 0-6.8-2.46 5.28 5.28 0 0 0-2.86.67 2.14 2.14 0 0 0-1 1.88 1.88 1.88 0 0 0 .65 1.47 4.6 4.6 0 0 0 2.08.9l3.71.85a9.45 9.45 0 0 1 4.78 2.25 5.5 5.5 0 0 1 1.52 4 5.67 5.67 0 0 1-2.46 4.83 11.1 11.1 0 0 1-6.66 1.78 18.85 18.85 0 0 1-5.36-.63zM223.06 477.36h-14.88a6.82 6.82 0 0 0 1.83 4.52 6.27 6.27 0 0 0 4.47 1.47 10.51 10.51 0 0 0 6.61-2.32l1.61 3.84a11.41 11.41 0 0 1-3.82 2 14.57 14.57 0 0 1-4.62.76q-5.37 0-8.47-3a11 11 0 0 1-3.11-8.31 12.8 12.8 0 0 1 1.34-5.94 9.74 9.74 0 0 1 3.78-4 10.71 10.71 0 0 1 5.52-1.43 9.11 9.11 0 0 1 7.13 2.91c1.74 1.94 2.61 4.6 2.61 8zm-13.21-7.1a6.87 6.87 0 0 0-1.67 4.11h10.1a6.36 6.36 0 0 0-1.34-4.13 4.43 4.43 0 0 0-3.49-1.41 4.72 4.72 0 0 0-3.6 1.43zM242 469.54l-3.26.32c-3.7.38-5.54 2.26-5.54 5.63v11.8h-5.59v-21.86h5.32v3.84q1.69-3.93 7-4.29l1.69-.13zM261.41 465.47h5.5l-9.57 21.82h-4.87L243 465.47h5.9l6.17 15.43zM285.5 467.13q2.24 2.24 2.23 6.88v13.28h-5.31v-3.36a5.8 5.8 0 0 1-2.4 2.73 7.09 7.09 0 0 1-3.77 1 8.72 8.72 0 0 1-4-.89 7.11 7.11 0 0 1-2.82-2.46 6.22 6.22 0 0 1-1-3.48 5.51 5.51 0 0 1 1.23-3.8 7.25 7.25 0 0 1 4-2 36.1 36.1 0 0 1 7.64-.63h1.12v-1a4.46 4.46 0 0 0-1-3.22 4.35 4.35 0 0 0-3.19-1 12 12 0 0 0-3.64.6 18.78 18.78 0 0 0-3.74 1.68l-1.56-3.84a17.36 17.36 0 0 1 4.42-1.93 17.76 17.76 0 0 1 4.92-.76q4.64-.04 6.87 2.2zm-4.49 15a5.38 5.38 0 0 0 1.41-3.86v-.94h-.81a30.6 30.6 0 0 0-4.65.27 4.52 4.52 0 0 0-2.37.94 2.39 2.39 0 0 0-.71 1.83 3.11 3.11 0 0 0 1 2.35 3.54 3.54 0 0 0 2.51.91 4.78 4.78 0 0 0 3.61-1.51zM306.64 483.31l-.27 4.16c-.89.08-1.71.13-2.46.13q-4.61 0-6.79-2.12t-2.19-6.33v-9.52h-4.2v-4.2h4.2v-6.53h5.59v6.53h5.76v4.2h-5.76v9.43q0 4.38 4.06 4.38a16.4 16.4 0 0 0 2.06-.13zM309.59 455.28h6.17v5.5h-6.17zm.31 32v-21.85h5.59v21.86zM336.59 465.47h5.49l-9.56 21.82h-4.87l-9.48-21.82h5.9l6.17 15.43zM363.58 477.36H348.7a6.82 6.82 0 0 0 1.83 4.52 6.27 6.27 0 0 0 4.47 1.47 10.56 10.56 0 0 0 6.62-2.32l1.6 3.84a11.41 11.41 0 0 1-3.82 2 14.52 14.52 0 0 1-4.62.76q-5.37 0-8.47-3a11.08 11.08 0 0 1-3.11-8.31 12.8 12.8 0 0 1 1.34-5.94 9.81 9.81 0 0 1 3.78-4 10.71 10.71 0 0 1 5.52-1.43 9.11 9.11 0 0 1 7.16 2.85c1.74 1.94 2.61 4.6 2.61 8zm-13.21-7.1a6.93 6.93 0 0 0-1.67 4.11h10.1a6.36 6.36 0 0 0-1.34-4.13 4.43 4.43 0 0 0-3.49-1.41 4.72 4.72 0 0 0-3.6 1.43zM370.84 486.93a12 12 0 0 1-4.13-2.06l1.56-3.89a13.23 13.23 0 0 0 8 2.55 5.65 5.65 0 0 0 2.93-.62 2 2 0 0 0 1-1.79 1.81 1.81 0 0 0-.69-1.52 7 7 0 0 0-2.48-1l-3.58-.81a8.87 8.87 0 0 1-4.52-2.19 5.41 5.41 0 0 1-1.47-3.93 5.84 5.84 0 0 1 1.14-3.56 7.48 7.48 0 0 1 3.17-2.39 12.31 12.31 0 0 1 4.72-.85 14.17 14.17 0 0 1 4.49.72 12.53 12.53 0 0 1 3.82 2l-1.56 3.8a11.56 11.56 0 0 0-6.8-2.46 5.28 5.28 0 0 0-2.86.67 2.13 2.13 0 0 0-1 1.88 1.87 1.87 0 0 0 .64 1.47 4.65 4.65 0 0 0 2.08.9l3.71.85a9.41 9.41 0 0 1 4.78 2.25 5.5 5.5 0 0 1 1.52 4 5.69 5.69 0 0 1-2.45 4.83 11.12 11.12 0 0 1-6.66 1.78 18.87 18.87 0 0 1-5.36-.63z" transform="translate(-10.51 -10.36)"/><path class="cls-2" d="M212.78 10.36c-111.71 0-202.27 90.55-202.27 202.26s90.56 202.27 202.27 202.27 202.27-90.56 202.27-202.27S324.49 10.36 212.78 10.36zm-180 202.26A180 180 0 0 1 333.29 78.86l-68.84 68.85-3.73-17.05h7.07a9.2 9.2 0 0 0 9.2-9.19v-20.29a9.2 9.2 0 0 0-9.2-9.2h-125a9.2 9.2 0 0 0-9.2 9.2v20.29a9.2 9.2 0 0 0 9.2 9.19h7.07l-36.95 168.59L79 333.13a179.36 179.36 0 0 1-46.27-120.51zM258.94 188l16.89 77.11c-9-1.16-30.58-5.35-48.86-19.86-5.73-4.54-10.11-8.37-13.67-11.62zm-64.79 30a37 37 0 0 0-5.67-2c-12.37-3.29-30.76-13.2-38.23-21.88l13.9-63.5 2.53-11.52h77.19l2.52 11.52 6.31 28.8zm18.63 174.66a179.32 179.32 0 0 1-116.11-42.44l23.8-23.81a14.13 14.13 0 0 0 3.77.53H286.3a14 14 0 0 0 13.42-18.17l-29-132.57 79.68-79.69a180 180 0 0 1-137.62 296.16z" transform="translate(-10.51 -10.36)"/><path class="cls-2" d="M181.26 167.39c-5.26 0-9.51 3.27-9.51 8.53s4.25 10.49 9.51 10.49a9.51 9.51 0 1 0 0-19zM213.54 141.38c-5.75 0-10.41 3.68-10.41 9.43s4.66 11.39 10.41 11.39a10.41 10.41 0 0 0 0-20.82zM246.37 247.88a14.09 14.09 0 1 0-14.09-14.08 14.08 14.08 0 0 0 14.09 14.08z" transform="translate(-10.51 -10.36)"/></svg>