 <svg id="sugar" data-name="sugar" xmlns="http://www.w3.org/2000/svg" viewBox="0 0 404.34 485.1"><defs/><path class="cls-1" d="M65.79 455.48h5.4V487h-4.33L50 465v22h-5.39v-31.5h4.29l16.89 21.94zM81.58 486a9.65 9.65 0 0 1-3.91-4 12.67 12.67 0 0 1-1.38-6 12.48 12.48 0 0 1 1.38-6 9.69 9.69 0 0 1 3.91-4 13.2 13.2 0 0 1 11.75 0 9.52 9.52 0 0 1 3.89 4 12.59 12.59 0 0 1 1.36 6 12.78 12.78 0 0 1-1.36 6 9.49 9.49 0 0 1-3.89 4 13.11 13.11 0 0 1-11.75 0zm10-4.73a10.39 10.39 0 0 0 0-10.52 4.94 4.94 0 0 0-4.11-1.81 5 5 0 0 0-4.14 1.81 8.24 8.24 0 0 0-1.45 5.24 8.33 8.33 0 0 0 1.43 5.28 5 5 0 0 0 4.1 1.73 5 5 0 0 0 4.16-1.78zM139.86 487l-3.17-7.37h-15.33l-3.17 7.37h-5.81l14.25-31.5h4.7l14.25 31.5zm-16.62-11.84h11.53L129 461.74zM169.52 455.48V487H164v-3.53a7 7 0 0 1-2.83 2.86 8.66 8.66 0 0 1-4.23 1 9.06 9.06 0 0 1-5-1.43 9.46 9.46 0 0 1-3.44-4.05 13.92 13.92 0 0 1-1.23-6 13.54 13.54 0 0 1 1.23-5.95 9.4 9.4 0 0 1 3.42-3.93 9.23 9.23 0 0 1 5-1.38 8.8 8.8 0 0 1 4.2 1 6.9 6.9 0 0 1 2.82 2.77v-12.88zm-7 25.69a8.22 8.22 0 0 0 1.45-5.23 8.13 8.13 0 0 0-1.45-5.2 4.94 4.94 0 0 0-4.09-1.81 5.09 5.09 0 0 0-4.15 1.79 7.89 7.89 0 0 0-1.48 5.14 8.36 8.36 0 0 0 1.48 5.27 4.92 4.92 0 0 0 4.12 1.87 5 5 0 0 0 4.13-1.83zM196.37 455.48V487h-5.54v-3.53a7 7 0 0 1-2.84 2.86 8.59 8.59 0 0 1-4.22 1 9.06 9.06 0 0 1-5-1.43 9.46 9.46 0 0 1-3.44-4.05 13.92 13.92 0 0 1-1.23-6 13.54 13.54 0 0 1 1.23-5.95 9 9 0 0 1 8.46-5.31 8.8 8.8 0 0 1 4.2 1 6.9 6.9 0 0 1 2.82 2.77v-12.88zm-7 25.69a8.22 8.22 0 0 0 1.45-5.23 8.13 8.13 0 0 0-1.45-5.2 4.94 4.94 0 0 0-4.09-1.81 5.07 5.07 0 0 0-4.15 1.79 7.84 7.84 0 0 0-1.48 5.14 8.3 8.3 0 0 0 1.48 5.27 4.92 4.92 0 0 0 4.11 1.87 5 5 0 0 0 4.14-1.83zM221.3 477.06h-14.88a6.79 6.79 0 0 0 1.83 4.51 6.26 6.26 0 0 0 4.47 1.48 10.52 10.52 0 0 0 6.61-2.33l1.61 3.85a11.78 11.78 0 0 1-3.82 2 14.81 14.81 0 0 1-4.62.76 11.61 11.61 0 0 1-8.47-3 11.1 11.1 0 0 1-3.1-8.31 12.68 12.68 0 0 1 1.34-5.94 9.7 9.7 0 0 1 3.77-4 10.66 10.66 0 0 1 5.52-1.43 9.14 9.14 0 0 1 7.13 2.9c1.74 1.94 2.61 4.6 2.61 8zM208.1 470a6.94 6.94 0 0 0-1.68 4.11h10.1a6.36 6.36 0 0 0-1.34-4.13 4.43 4.43 0 0 0-3.49-1.41 4.74 4.74 0 0 0-3.59 1.43zM246.94 455.48V487h-5.54v-3.53a7 7 0 0 1-2.83 2.86 8.66 8.66 0 0 1-4.23 1 9.06 9.06 0 0 1-5-1.43 9.46 9.46 0 0 1-3.44-4.05 13.92 13.92 0 0 1-1.23-6 13.54 13.54 0 0 1 1.23-5.95 9.4 9.4 0 0 1 3.4-3.9 9.23 9.23 0 0 1 5-1.38 8.8 8.8 0 0 1 4.2 1 6.9 6.9 0 0 1 2.82 2.77v-12.91zm-7 25.69a8.22 8.22 0 0 0 1.45-5.23 8.13 8.13 0 0 0-1.45-5.2 4.94 4.94 0 0 0-4.09-1.81 5.09 5.09 0 0 0-4.15 1.79 7.84 7.84 0 0 0-1.48 5.14 8.3 8.3 0 0 0 1.48 5.27 4.92 4.92 0 0 0 4.11 1.87 5 5 0 0 0 4.19-1.83zM269.19 486.4a15.8 15.8 0 0 1-5.36-2.77l1.92-4.2a15.93 15.93 0 0 0 4.8 2.55 18.12 18.12 0 0 0 5.47.8 9.27 9.27 0 0 0 5-1.14 3.58 3.58 0 0 0 1.76-3.19 3 3 0 0 0-1.63-2.73 21 21 0 0 0-5.42-1.79 32.18 32.18 0 0 1-6.39-2 9 9 0 0 1-3.71-2.86 7.43 7.43 0 0 1-1.25-4.42 8.51 8.51 0 0 1 1.52-5 10 10 0 0 1 4.29-3.42 15.57 15.57 0 0 1 6.39-1.23 19.6 19.6 0 0 1 6.29 1 13.69 13.69 0 0 1 4.92 2.74L285.9 463a14.57 14.57 0 0 0-9.29-3.35 8.3 8.3 0 0 0-4.81 1.23 4 4 0 0 0-1.76 3.42 3.13 3.13 0 0 0 1.56 2.81 18.29 18.29 0 0 0 5.32 1.84 35.23 35.23 0 0 1 6.45 2 9.48 9.48 0 0 1 3.8 2.8 6.76 6.76 0 0 1 1.32 4.28A8.33 8.33 0 0 1 287 483a9.4 9.4 0 0 1-4.33 3.26 17.86 17.86 0 0 1-6.68 1.14 23 23 0 0 1-6.8-1zM313.37 465.13V487h-5.45v-3.35a7.11 7.11 0 0 1-2.77 2.75 8 8 0 0 1-3.93 1q-8 0-8-9v-13.27h5.58v13.23a5.31 5.31 0 0 0 .94 3.44 3.66 3.66 0 0 0 2.95 1.11 4.8 4.8 0 0 0 3.73-1.54 5.8 5.8 0 0 0 1.41-4.08v-12.16zM340.44 465.13V485q0 5.13-2.83 7.77c-1.89 1.76-4.69 2.64-8.38 2.64a20.27 20.27 0 0 1-5.49-.74 15.34 15.34 0 0 1-4.61-2.08l1.57-3.93a16 16 0 0 0 8.4 2.46q5.81 0 5.8-5.72v-2.86a6.76 6.76 0 0 1-2.86 2.84 8.92 8.92 0 0 1-4.28 1 9.24 9.24 0 0 1-8.54-5.18 12.39 12.39 0 0 1-1.22-5.7 12.68 12.68 0 0 1 1.23-5.7 9.15 9.15 0 0 1 3.46-3.84 9.58 9.58 0 0 1 5.1-1.36 8.92 8.92 0 0 1 4.28 1 6.76 6.76 0 0 1 2.86 2.84v-3.31zm-7 15.15a8.49 8.49 0 0 0 0-9.61 5.85 5.85 0 0 0-8.33 0 8.32 8.32 0 0 0 0 9.59 5.83 5.83 0 0 0 8.33 0zM362.42 466.83q2.24 2.24 2.24 6.88V487h-5.32v-3.35a5.8 5.8 0 0 1-2.39 2.72 7.12 7.12 0 0 1-3.77 1 8.72 8.72 0 0 1-4-.9 7 7 0 0 1-2.81-2.45 6.21 6.21 0 0 1-1-3.49 5.53 5.53 0 0 1 1.23-3.8 7.43 7.43 0 0 1 4-2 37 37 0 0 1 7.64-.62h1.12v-1a4.51 4.51 0 0 0-1-3.22 4.35 4.35 0 0 0-3.19-1 11.83 11.83 0 0 0-3.65.61 18.58 18.58 0 0 0-3.72 1.67l-1.57-3.84a17 17 0 0 1 4.42-1.92 17.4 17.4 0 0 1 4.92-.76c3.09-.05 5.36.69 6.85 2.18zm-4.49 15a5.41 5.41 0 0 0 1.41-3.86V477h-.8a30.6 30.6 0 0 0-4.65.27 4.53 4.53 0 0 0-2.37.93 2.42 2.42 0 0 0-.71 1.83 3.08 3.08 0 0 0 1 2.35 3.54 3.54 0 0 0 2.5.92 4.75 4.75 0 0 0 3.62-1.48zM384.72 469.24l-3.27.32q-5.54.57-5.54 5.63V487h-5.58v-21.87h5.32V469q1.69-3.93 7-4.29l1.7-.14z" transform="translate(-10.71 -10.28)"/><path class="cls-2" d="M212.88 10.28c-111.66 0-202.17 90.51-202.17 202.17s90.51 202.17 202.17 202.17 202.17-90.52 202.17-202.17S324.53 10.28 212.88 10.28zm-180 202.17a180 180 0 0 1 300.45-133.7L202.15 209.93a177.26 177.26 0 0 0-31.64-21.88l-100-54.11a7.47 7.47 0 0 0-10.12 3 7.46 7.46 0 0 0 3.23 10.22L165.12 198a158.89 158.89 0 0 1 17.52 10.67 143.25 143.25 0 0 1 11.54 9.23l-115 115a179.3 179.3 0 0 1-46.26-120.45zm180 180A179.29 179.29 0 0 1 96.82 350l115.12-115.14 13.63 13.39a65 65 0 0 1 11.51 15.26 53.93 53.93 0 0 0 5.7 8.3 79 79 0 0 0 19.42 16.58 93.29 93.29 0 0 0 13.05 6.7 95.11 95.11 0 0 0 14.89 4.83 95 95 0 0 0 15.45 2.52 93.31 93.31 0 0 0 14.67 0 78.9 78.9 0 0 0 24.85-5.86c6.75-2.88 12.29-6.69 16-11 3.42-3.95 5.2-8.16 5.17-12.23h-.4q-6 .66-11.92 1h-1.13a196.26 196.26 0 0 1-47.39-3.56q-3.6-.72-7.17-1.57-5.82-1.38-11.52-3.12a196.92 196.92 0 0 1-43.86-19.45l-.48-.29-.48-.29q-3.36-2-6.66-4.21l-.94-.91-14.34-14.07L350.4 96.4a179.94 179.94 0 0 1-137.52 296z" transform="translate(-10.71 -10.28)"/><path class="cls-2" d="M351.44 266.28c.9 2.39 1.65 4.74 2.26 7q6.18-.31 12.38-1c-.29-2.73-5.85-4.36-14.64-6zM248 240.23c-7.34-2.25-12.13-3-13.38-.82l-.09.18 1.46 1.44q3.34 2.21 6.77 4.27c1.53-1.69 3.3-3.4 5.24-5.07zM348.85 262.79a3.4 3.4 0 0 1-.48-1c0-.06 0-.12-.05-.18a86.55 86.55 0 0 0-15.73-23.9 61 61 0 0 0-11.34-9.45 46.86 46.86 0 0 0-13.5-5.94 49.43 49.43 0 0 0-21.74-.37 73.18 73.18 0 0 0-20.45 7.45 90.6 90.6 0 0 0-16.37 11.23l-.38.33a75.993 75.993 0 0 0-5.13 4.94 194.92 194.92 0 0 0 108.88 27.44 76 76 0 0 0-2.39-7.27c-.41-1.07-.86-2.2-1.32-3.28z" transform="translate(-10.71 -10.28)"/></svg>